<svg id="Facebook" xmlns="http://www.w3.org/2000/svg" width="121.67" height="121.67" viewBox="0 0 121.67 121.67">
  <title>fb</title>
  <path d="M72,11.17A60.83,60.83,0,1,0,132.88,72,60.9,60.9,0,0,0,72,11.17Zm0,115.66A54.83,54.83,0,1,1,126.88,72,54.89,54.89,0,0,1,72,126.83Z" transform="translate(-11.21 -11.17)"/>
  <path d="M90.79,36.3H77.51c-13.33,0-15.07,9.34-15.07,17.47a1,1,0,0,0,0,.24v5.71H53.29a1,1,0,0,0-1,1V74.8a1,1,0,0,0,1,1h9.12v30.89a1,1,0,0,0,1,1H76.72a1,1,0,0,0,1-1V75.81H90.79a1,1,0,0,0,1-1V60.73a1,1,0,0,0-1-1H76.71V52.16H90.79a1,1,0,0,0,1-1V37.3A1,1,0,0,0,90.79,36.3Z" transform="translate(-11.21 -11.17)"/>
</svg>
