<svg id="Instagram" xmlns="http://www.w3.org/2000/svg" width="121.67" height="121.67" viewBox="0 0 121.67 121.67">
  <title>insta</title>
  <path d="M72,11.17A60.83,60.83,0,1,0,132.88,72,60.9,60.9,0,0,0,72,11.17Zm0,115.66A54.83,54.83,0,1,1,126.88,72,54.89,54.89,0,0,1,72,126.83Z" transform="translate(-11.21 -11.17)"/>
  <path d="M91.08,42.7H53A10.2,10.2,0,0,0,42.82,52.89V91.13A10.19,10.19,0,0,0,53,101.31H91.07a10.19,10.19,0,0,0,10.19-10.18V52.88A10.2,10.2,0,0,0,91.08,42.7ZM80.85,71.9a8.81,8.81,0,1,1-15.07-6.18H78.3A8.77,8.77,0,0,1,80.85,71.9ZM83.4,50.85h8.92V60H83.4Zm7.68,44.46H53a4.19,4.19,0,0,1-4.19-4.18V65.71h9.79a14.81,14.81,0,1,0,26.87,0h9.78V91.13A4.18,4.18,0,0,1,91.08,95.31Z" transform="translate(-11.21 -11.17)"/>
</svg>
