<svg id="Capa_1" data-name="Capa 1" xmlns="http://www.w3.org/2000/svg" width="174.24" height="150.74" viewBox="0 0 174.24 150.74">
  <title>87353</title>
  <g>
    <path d="M124.86,147.75l-4.58,2.64-16.88,9.76-2.58,1.5a6.32,6.32,0,0,1-8.62-2.34l-.3-.55L70.45,121.62A7,7,0,0,0,65.72,118a3.21,3.21,0,0,0-1.7.15h0a.15.15,0,0,0-.1,0,2,2,0,0,0-.3.1A45.59,45.59,0,0,1,6.12,99.26a1,1,0,0,1-.3-.5A45.61,45.61,0,0,1,20.26,38.62a.67.67,0,0,1,.3-.25c1.34-.79,2.88-.3,3.83,1.35L43.31,72.53a4.6,4.6,0,0,0,6.22,1.64l5.58-3.24,19.62-11.3a4.59,4.59,0,0,0,1.64-6.27L64,32l-6.52-11.3c-.94-1.7-.6-3.24.75-4a.84.84,0,0,1,.3-.19A45.57,45.57,0,0,1,117.84,34c.1.2.25.35.35.55a44.71,44.71,0,0,1,5.33,14.54h-6a16.18,16.18,0,0,0-12.64,7.31L101.71,62,97.63,69,87,87.41a14.74,14.74,0,0,0-1.75,7.77v0A14.37,14.37,0,0,0,87,102.05l17.87,30.87a16.06,16.06,0,0,0,12.64,7.32H127.6A6.28,6.28,0,0,1,124.86,147.75Z" transform="translate(0 -11.75)"/>
    <g>
      <path d="M172.56,87.51,160.21,66.1a16,16,0,0,0-12.45-7.21H123a16,16,0,0,0-12.5,7.21L103.2,78.8l-5,8.71c-2.24,4-2.24,10.46,0,14.34l2.44,4.28,9.9,17.13a15.84,15.84,0,0,0,11.55,7.12,1.1,1.1,0,0,0,.4.05,1.87,1.87,0,0,0,.55,0h24.74a15.93,15.93,0,0,0,12.45-7.22l12.35-21.41C174.8,98,174.8,91.5,172.56,87.51Zm-35.65,24.3h-3.13a11.38,11.38,0,0,1-1.3-.1c-4.28-.5-9.06-3.49-11.1-7.07l-1.59-2.79a12.45,12.45,0,0,1-1.45-4.23,15.37,15.37,0,0,1,1.45-10.11l1.59-2.74a15.18,15.18,0,0,1,7.07-5.92,12.93,12.93,0,0,1,5.33-1.25h3.13a16,16,0,0,1,12.5,7.17L151,87.51c2.29,4,2.29,10.46,0,14.34l-.74,1.34-.8,1.45A16,16,0,0,1,136.91,111.81Z" transform="translate(0 -11.75)"/>
      <path d="M172.56,87.51,160.21,66.1a16,16,0,0,0-12.45-7.21H123a16,16,0,0,0-12.5,7.21L103.2,78.8l-5,8.71c-2.24,4-2.24,10.46,0,14.34l2.44,4.28,9.9,17.13a15.84,15.84,0,0,0,11.55,7.12,1.1,1.1,0,0,0,.4.05,1.87,1.87,0,0,0,.55,0h24.74a15.93,15.93,0,0,0,12.45-7.22l12.35-21.41C174.8,98,174.8,91.5,172.56,87.51Zm-35.65,24.3h-3.13a11.38,11.38,0,0,1-1.3-.1c-4.28-.5-9.06-3.49-11.1-7.07l-1.59-2.79a12.45,12.45,0,0,1-1.45-4.23,15.37,15.37,0,0,1,1.45-10.11l1.59-2.74a15.18,15.18,0,0,1,7.07-5.92,12.93,12.93,0,0,1,5.33-1.25h3.13a16,16,0,0,1,12.5,7.17L151,87.51c2.29,4,2.29,10.46,0,14.34l-.74,1.34-.8,1.45A16,16,0,0,1,136.91,111.81Z" transform="translate(0 -11.75)"/>
      <path d="M172.56,87.51,160.21,66.1a16,16,0,0,0-12.45-7.21H123a16,16,0,0,0-12.5,7.21L103.2,78.8l-5,8.71c-2.24,4-2.24,10.46,0,14.34l2.44,4.28,9.9,17.13a15.84,15.84,0,0,0,11.55,7.12,1.1,1.1,0,0,0,.4.05,1.87,1.87,0,0,0,.55,0h24.74a15.93,15.93,0,0,0,12.45-7.22l12.35-21.41C174.8,98,174.8,91.5,172.56,87.51Zm-35.65,24.3h-3.13a11.38,11.38,0,0,1-1.3-.1c-4.28-.5-9.06-3.49-11.1-7.07l-1.59-2.79a12.45,12.45,0,0,1-1.45-4.23,15.37,15.37,0,0,1,1.45-10.11l1.59-2.74a15.18,15.18,0,0,1,7.07-5.92,12.93,12.93,0,0,1,5.33-1.25h3.13a16,16,0,0,1,12.5,7.17L151,87.51c2.29,4,2.29,10.46,0,14.34l-.74,1.34-.8,1.45A16,16,0,0,1,136.91,111.81Z" transform="translate(0 -11.75)"/>
    </g>
  </g>
</svg>
