<svg id="Layer_2" data-name="Layer 2" xmlns="http://www.w3.org/2000/svg" width="691.82" height="254.69" viewBox="0 0 691.82 254.69">
  <defs>
    <style>
      .cls-1 {
        fill: #231f20;
      }
    </style>
  </defs>
  <title>vehicle</title>
  <circle class="cls-1" cx="270.7" cy="564.52" r="15.55" transform="translate(-484.31 367.49) rotate(-80.67)"/>
  <path class="cls-1" d="M154.09,567.1v4.54a9.72,9.72,0,0,0,9.72,9.72h46.32a62.87,62.87,0,0,0,121.11,0h341.4a62.87,62.87,0,0,0,121.11,0h42.44a9.72,9.72,0,0,0,9.72-9.72V567.1a9.72,9.72,0,0,0-9.72-9.71h-.08V500.24A28.68,28.68,0,0,0,835,492.3l-6.11-21.08c-2.51-8.63-8.88-15.14-16.77-17.13l-33.91-8.55a77.42,77.42,0,0,1-27.72-13.41l-52.12-39.39A76.16,76.16,0,0,0,660,377.47a961.46,961.46,0,0,0-209.36,1.89l-25.58,3a79.53,79.53,0,0,0-32.33,11.38l-64.58,39.85a79.48,79.48,0,0,1-31.52,11.28l-82.1,10.62c-21.54,2.79-38.83,21.21-42.4,45.18l0,.33-6.28,8.28a27.82,27.82,0,0,0-5.52,16.81v23.8a28.79,28.79,0,0,0,1.06,7.79A9.71,9.71,0,0,0,154.09,567.1ZM799.35,485h13.49a3.71,3.71,0,0,1,3.08,1.63l1.66,2.43a31.78,31.78,0,0,1,5.5,17.86v3.5a3.74,3.74,0,0,1-3.74,3.73H807.67a3.71,3.71,0,0,1-3.48-2.39l-8.32-21.7A3.72,3.72,0,0,1,799.35,485ZM497.81,505.16H473.52a8.26,8.26,0,1,1,0-16.52h24.29a8.26,8.26,0,0,1,0,16.52Zm182,0H655.54a8.26,8.26,0,1,1,0-16.52h24.29a8.26,8.26,0,0,1,0,16.52Zm15.82,50.67a38.32,38.32,0,0,1,4.87-11.73,9.38,9.38,0,0,0,9.52-1.39,8.72,8.72,0,0,0,.71-.64,8.47,8.47,0,0,0,.64-.72,9.36,9.36,0,0,0,1.4-9.51A38.07,38.07,0,0,1,724.52,527a9.39,9.39,0,0,0,17.35,0,38,38,0,0,1,11.73,4.87,9.39,9.39,0,0,0,12.27,12.26,38.07,38.07,0,0,1,4.87,11.73,9.39,9.39,0,0,0,0,17.36,38.11,38.11,0,0,1-2.89,8.17,38.51,38.51,0,0,1-2,3.55,9.39,9.39,0,0,0-12.26,12.28,38.3,38.3,0,0,1-11.73,4.86,9.39,9.39,0,0,0-17.35,0,38.3,38.3,0,0,1-11.73-4.86,9.39,9.39,0,0,0-12.25-12.28,37.12,37.12,0,0,1-4.9-11.72,9.39,9.39,0,0,0,0-17.36Zm-159-100.18,10.86-49.75a9.72,9.72,0,0,1,9.84-7.65l92.23,3.38a9.74,9.74,0,0,1,7.54,4L690,451.49a11.25,11.25,0,0,1-9.14,17.8H547.64A11.25,11.25,0,0,1,536.65,455.65Zm-195.73-1.37,64.58-39.83a54.53,54.53,0,0,1,22.43-7.93l25.58-3C475.84,400.82,498.4,399,521,398a4.83,4.83,0,0,1,4.86,6.1l-13,46.86a25.05,25.05,0,0,1-24.14,18.37H362.63A25.23,25.23,0,0,1,341.58,458l-1.93-2.92C340.08,454.8,340.5,454.55,340.92,454.28ZM233.14,555.83c.25-1.05.53-2.09.86-3.11a39,39,0,0,1,2.45-5.88c.48-.93,1-1.84,1.56-2.74a9.36,9.36,0,0,0,9.52-1.39,7.2,7.2,0,0,0,.71-.64,7.29,7.29,0,0,0,.65-.72,9.36,9.36,0,0,0,1.4-9.5l.22-.14.63-.38c.62-.37,1.25-.73,1.89-1.05s1.41-.71,2.14-1h0l.06,0c.71-.31,1.42-.6,2.15-.87h0c.74-.27,1.48-.52,2.24-.75h0c.77-.23,1.54-.43,2.32-.62h0a9.4,9.4,0,0,0,17.36,0h0c.79.19,1.56.39,2.32.62h0c.76.23,1.5.48,2.24.75h0c.73.27,1.44.56,2.15.87l.06,0h0c.72.32,1.44.66,2.14,1s1.27.69,1.89,1.05l.62.38.06,0,.17.11a9.38,9.38,0,0,0,12.27,12.25c.56.9,1.08,1.81,1.57,2.74a39,39,0,0,1,2.45,5.88c.33,1,.61,2.06.85,3.11a9.39,9.39,0,0,0,0,17.36c-.16.74-.36,1.47-.57,2.19s-.42,1.34-.65,2c-.12.35-.25.7-.38,1-.26.66-.54,1.31-.83,2-.14.33-.3.65-.45,1-.61,1.22-1.29,2.41-2,3.55a9.39,9.39,0,0,0-12.26,12.28,38.2,38.2,0,0,1-11.73,4.86,9.39,9.39,0,0,0-17.35,0,38.3,38.3,0,0,1-11.73-4.86A9.39,9.39,0,0,0,238,584.91a38.51,38.51,0,0,1-2-3.55c-.16-.32-.31-.65-.46-1-.29-.65-.56-1.3-.82-2a38.35,38.35,0,0,1-1.62-5.24,9.39,9.39,0,0,0,0-17.36ZM192.2,495c2.75-7.06,7.11-15.55,13.21-19.76a5.87,5.87,0,0,1,3.33-1h13.49a6,6,0,0,1,5.39,8.62l-5.36,11a5.94,5.94,0,0,1-3.59,3.09l-19.11,6A6,6,0,0,1,192.2,495Z" transform="translate(-154.09 -372.66)"/>
  <path class="cls-1" d="M733.2,580.05a15.55,15.55,0,1,0-15.55-15.54A15.53,15.53,0,0,0,733.2,580.05Z" transform="translate(-154.09 -372.66)"/>
</svg>
