<svg id="Layer_2" data-name="Layer 2" xmlns="http://www.w3.org/2000/svg" width="702.24" height="265.55" viewBox="0 0 702.24 265.55">
  <defs>
    <style>
      .cls-1 {
        fill: #231f20;
      }
    </style>
  </defs>
  <title>wheeler</title>
  <path class="cls-1" d="M835,367.23H369.61a16.08,16.08,0,0,0-16.08,16.08v5.18a16.09,16.09,0,0,0,10.34,15v158H344.76V435.41a7.27,7.27,0,0,0-8.8-7.1l-26.51,5.76a7.25,7.25,0,0,0-5.47,5.21l-1.41,5.21H281.86a35.17,35.17,0,0,0-27.79,13.62L224.38,496.4a35.21,35.21,0,0,1-20.8,12.91l-19.13,3.89a29.62,29.62,0,0,0-23.47,25l-3.4,25.09a16,16,0,0,0-8.7,14.28v5.18A16.08,16.08,0,0,0,165,598.88H186.5a41.58,41.58,0,0,0,81.73,0H389.12a41.59,41.59,0,0,0,81.74,0h13.91a41.58,41.58,0,0,0,81.73,0h82a41.58,41.58,0,0,0,81.73,0h13.91a41.59,41.59,0,0,0,81.74,0H835A16.07,16.07,0,0,0,851,584.94h.15V383.31A16.08,16.08,0,0,0,835,367.23ZM180,561.54a4.51,4.51,0,0,1-6.79,0c-2.22-2.16-3.73-6.37-3.73-11.21,0-7,3.19-12.75,7.13-12.75s7.12,5.71,7.12,12.75C183.71,555.17,182.2,559.38,180,561.54Zm65.88,37.34a20,20,0,0,1-37,0,20.06,20.06,0,0,1-.53-13.94,20,20,0,0,1,39.06,6.25A19.83,19.83,0,0,1,245.86,598.88Zm81.9-89a6.75,6.75,0,0,1-6.75,6.75H259.26a6.9,6.9,0,0,1-5-2.21,36.87,36.87,0,0,0-7.94-6.36,6.71,6.71,0,0,1-1.8-9.88l23-29.63a18.3,18.3,0,0,1,14.36-7H321a6.75,6.75,0,0,1,6.75,6.75v41.62Zm120.72,89a20,20,0,1,1,1.54-7.69A20,20,0,0,1,448.48,598.88Zm95.65,0a20,20,0,0,1-37,0,20,20,0,0,1-.54-13.94,20,20,0,0,1,39.07,6.25A19.84,19.84,0,0,1,544.13,598.88Zm163.72,0a20,20,0,0,1-37,0,20,20,0,0,1-.54-13.94,20,20,0,0,1,39.07,6.25A19.84,19.84,0,0,1,707.85,598.88Zm95.65,0a20,20,0,0,1-37,0,20.06,20.06,0,0,1-.53-13.94A20,20,0,0,1,805,591.19,19.83,19.83,0,0,1,803.5,598.88Zm-3.76-50.35H415.25a8.5,8.5,0,0,1,0-17H799.74a8.5,8.5,0,0,1,0,17Zm0-109.22H415.25a8.5,8.5,0,0,1,0-17H799.74a8.5,8.5,0,0,1,0,17Z" transform="translate(-148.88 -367.23)"/>
</svg>
